<svg width="239" height="232" viewBox="0 0 239 232" fill="none" xmlns="http://www.w3.org/2000/svg">
<g filter="url(#filter0_d)">
<ellipse cx="109.404" cy="105.956" rx="39.0607" ry="35.9563" fill="#EF2A82" fill-opacity="0.8"/>
<rect x="80.1074" y="81.6855" width="58.1368" height="51.7124" rx="20" fill="#EF2A82" fill-opacity="0.8"/>
<path d="M113.609 117.674H104.738V125.483C104.738 127.443 106.546 129.03 108.772 129.03H109.575C111.801 129.03 113.609 127.443 113.609 125.483V117.674V117.674Z" fill="#EDC391"/>
<path d="M121.589 102.051H96.7629C94.0877 102.051 91.8984 104.127 91.8984 106.66C91.8984 109.198 94.0877 111.27 96.7629 111.27H121.585C124.26 111.27 126.449 109.194 126.449 106.66C126.454 104.127 124.264 102.051 121.589 102.051Z" fill="#EDC391"/>
<path d="M109.176 86.1494C101.273 86.1494 93.9512 93.6679 93.9512 104.487C93.9512 115.25 101.495 120.57 109.176 120.57C116.856 120.57 124.4 115.25 124.4 104.487C124.4 93.6679 117.079 86.1494 109.176 86.1494V86.1494Z" fill="#F9DDBD"/>
<path d="M101.708 107.498C102.945 107.498 103.947 106.575 103.947 105.437C103.947 104.299 102.945 103.377 101.708 103.377C100.471 103.377 99.4688 104.299 99.4688 105.437C99.4688 106.575 100.471 107.498 101.708 107.498Z" fill="#312D2D"/>
<path d="M116.642 107.498C117.878 107.498 118.881 106.575 118.881 105.437C118.881 104.299 117.878 103.377 116.642 103.377C115.405 103.377 114.402 104.299 114.402 105.437C114.402 106.575 115.405 107.498 116.642 107.498Z" fill="#312D2D"/>
<path d="M110.929 109.174C110.879 109.158 110.834 109.146 110.784 109.142H107.573C107.523 109.146 107.473 109.158 107.427 109.174C107.137 109.279 106.978 109.546 107.114 109.832C107.25 110.119 107.891 110.919 109.18 110.919C110.47 110.919 111.111 110.115 111.247 109.832C111.379 109.546 111.22 109.279 110.929 109.174Z" fill="#DBA689"/>
<path d="M113 112.439C111.552 113.202 106.81 113.202 105.365 112.439C104.534 111.998 103.685 112.673 104.03 113.343C104.371 114.002 106.96 115.533 109.194 115.533C111.429 115.533 113.986 114.002 114.327 113.343C114.667 112.673 113.832 111.998 113 112.439Z" fill="#444444"/>
<path d="M109.186 83.7178H109.168C88.5291 83.8147 92.7576 103.974 92.7576 103.974C92.7576 103.974 93.6842 106.136 94.1066 107.089C94.1656 107.227 94.3927 107.211 94.4291 107.069C94.8696 105.316 96.4548 99.0982 97.2542 97.2074C97.4825 96.6687 97.9166 96.2186 98.4803 95.9357C99.0441 95.6529 99.7017 95.5553 100.338 95.6601C102.364 95.9873 105.584 96.3914 109.14 96.3914H109.213C112.765 96.3914 115.99 95.9873 118.011 95.6601C119.328 95.446 120.627 96.0964 121.095 97.2074C121.89 99.0901 123.466 105.271 123.911 107.049C123.947 107.194 124.174 107.207 124.233 107.069L125.587 103.97C125.596 103.974 129.82 83.8147 109.186 83.7178V83.7178Z" fill="#312D2D"/>
<path d="M125.596 103.974C125.596 103.974 129.824 83.8147 109.186 83.7178H109.167C108.845 83.7178 108.532 83.7259 108.223 83.738C107.61 83.7622 107.015 83.8026 106.442 83.8632H106.424C106.383 83.8673 106.347 83.8753 106.306 83.8794C88.933 85.8226 92.7528 103.974 92.7528 103.974L94.1063 107.077C94.1654 107.215 94.3879 107.202 94.4243 107.057C94.8694 105.283 96.45 99.0941 97.2493 97.2115C97.4782 96.6722 97.913 96.2217 98.4777 95.9389C99.0423 95.656 99.7008 95.5587 100.338 95.6641C102.364 95.9873 105.584 96.3914 109.14 96.3914H109.213C112.765 96.3914 115.989 95.9874 118.011 95.6601C119.328 95.446 120.627 96.0964 121.095 97.2074C121.894 99.0982 123.479 105.328 123.915 107.073C123.951 107.219 124.174 107.231 124.233 107.093C124.66 106.144 125.596 103.974 125.596 103.974V103.974Z" fill="url(#paint0_radial)"/>
<path d="M98.2796 102.177C99.6376 100.468 102.722 100.307 104.488 101.579C104.77 101.781 105.142 102.064 105.251 102.379C105.433 102.892 104.879 103.292 104.339 103.171C103.993 103.094 103.671 102.929 103.33 102.836C102.708 102.662 102.258 102.614 101.7 102.614C100.873 102.61 100.342 102.703 99.5559 102.985C99.2334 103.103 98.9699 103.288 98.602 103.151C98.1796 102.993 98.0252 102.517 98.2796 102.177V102.177Z" fill="#454140"/>
<path d="M119.2 103.146C119.068 103.094 118.941 103.029 118.809 102.981C118.001 102.682 117.542 102.605 116.665 102.609C115.893 102.613 115.434 102.706 114.83 102.888C114.462 103.001 113.995 103.284 113.586 103.175C112.986 103.013 113.004 102.431 113.331 102.06C113.722 101.623 114.258 101.292 114.826 101.074C116.143 100.565 117.751 100.638 118.991 101.296C119.395 101.51 119.836 101.805 120.081 102.177C120.435 102.706 119.899 103.401 119.2 103.146V103.146Z" fill="#454140"/>
<path d="M133.022 103.615C132.459 103.615 132 104.003 132 104.48V108.197C132 108.673 132.459 109.061 133.022 109.061C133.585 109.061 134.044 108.673 134.044 108.197V104.48C134.044 104.003 133.585 103.615 133.022 103.615Z" fill="#E8AD00"/>
<path d="M130.977 103.615C130.414 103.615 129.955 104.003 129.955 104.48V108.197C129.955 108.673 130.414 109.061 130.977 109.061C131.54 109.061 131.999 108.673 131.999 108.197V104.48C131.999 104.003 131.54 103.615 130.977 103.615Z" fill="#E8AD00"/>
<path d="M132 103.615C131.437 103.615 130.979 104.003 130.979 104.48V109.001C130.979 109.477 131.437 109.865 132 109.865C132.564 109.865 133.022 109.477 133.022 109.001V104.48C133.022 104.003 132.564 103.615 132 103.615Z" fill="#FFCA28"/>
<path d="M132 104.18C132.692 104.18 133.253 103.704 133.253 103.117C133.253 102.53 132.692 102.055 132 102.055C131.307 102.055 130.746 102.53 130.746 103.117C130.746 103.704 131.307 104.18 132 104.18Z" fill="#FFCA28"/>
<path d="M131.999 103.105C131.749 103.105 131.545 102.924 131.545 102.701V87.3493C131.545 87.1271 131.749 86.9453 131.999 86.9453C132.249 86.9453 132.453 87.1271 132.453 87.3493V102.701C132.453 102.928 132.249 103.105 131.999 103.105Z" fill="#504F4F"/>
<path d="M132.795 86.9293C118.792 83.7983 109.177 83.6973 109.177 83.6973C109.177 83.6973 99.5614 83.7983 85.5586 86.9293V87.2404C85.5586 87.7777 85.9537 88.2504 86.5306 88.3999C88.2202 88.8443 92.4941 89.826 94.7878 90.234C94.7515 90.2664 94.2882 90.9895 93.9566 91.6602C93.9566 91.6602 97.6538 93.9711 109.181 95.0053C120.709 93.9711 124.515 91.943 124.515 91.943C124.115 91.2117 123.702 90.533 123.702 90.533C125.746 90.234 130.165 88.8887 131.855 88.4079C132.422 88.2463 132.804 87.7817 132.804 87.2525V86.9293H132.795Z" fill="url(#paint1_linear)"/>
<path d="M109.177 83.6973C109.177 83.6973 99.5614 83.7983 85.5586 86.9293C85.5586 86.9293 101.642 90.836 109.177 90.7188C116.712 90.836 132.795 86.9293 132.795 86.9293C118.792 83.7983 109.177 83.6973 109.177 83.6973V83.6973Z" fill="url(#paint2_linear)"/>
<path opacity="0.4" d="M132.795 86.9293C118.792 83.7983 109.177 83.6973 109.177 83.6973C109.177 83.6973 99.5614 83.7983 85.5586 86.9293V87.2404C85.5586 87.7777 85.9537 88.2504 86.5306 88.3999C88.2202 88.8443 92.4941 89.8906 94.7878 90.3027C94.7878 90.3027 94.3518 90.933 93.9566 91.7289C93.9566 91.7289 97.6538 93.9711 109.181 95.0094C120.709 93.9751 124.515 91.947 124.515 91.947C124.115 91.2158 123.702 90.537 123.702 90.537C125.746 90.2381 130.165 88.8927 131.855 88.412C132.422 88.2504 132.804 87.7858 132.804 87.2565V86.9293H132.795Z" fill="url(#paint3_linear)"/>
<path d="M132.113 130.566C132.113 124.664 122.234 121.864 113.618 121.234L109.712 125.69C109.584 125.835 109.385 125.924 109.176 125.924C108.967 125.924 108.767 125.839 108.64 125.69L104.725 121.226C99.9329 121.553 86.2344 123.145 86.2344 130.566V131.782H132.108L132.113 130.566V130.566Z" fill="#212121"/>
<path d="M132.113 130.566C132.113 124.664 122.234 121.864 113.618 121.234L109.712 125.69C109.584 125.835 109.385 125.924 109.176 125.924C108.967 125.924 108.767 125.839 108.64 125.69L104.725 121.226C99.9329 121.553 86.2344 123.145 86.2344 130.566V131.782H132.108L132.113 130.566V130.566Z" fill="url(#paint4_radial)"/>
</g>
<defs>
<filter id="filter0_d" x="0.34375" y="0" width="238.121" height="231.913" filterUnits="userSpaceOnUse" color-interpolation-filters="sRGB">
<feFlood flood-opacity="0" result="BackgroundImageFix"/>
<feColorMatrix in="SourceAlpha" type="matrix" values="0 0 0 0 0 0 0 0 0 0 0 0 0 0 0 0 0 0 127 0"/>
<feOffset dx="10" dy="10"/>
<feGaussianBlur stdDeviation="40"/>
<feColorMatrix type="matrix" values="0 0 0 0 0.937255 0 0 0 0 0.164706 0 0 0 0 0.509804 0 0 0 0.2 0"/>
<feBlend mode="normal" in2="BackgroundImageFix" result="effect1_dropShadow"/>
<feBlend mode="normal" in="SourceGraphic" in2="effect1_dropShadow" result="shape"/>
</filter>
<radialGradient id="paint0_radial" cx="0" cy="0" r="1" gradientUnits="userSpaceOnUse" gradientTransform="translate(109.177 100.538) scale(17.2017 17.2624)">
<stop offset="0.794" stop-color="#454140" stop-opacity="0"/>
<stop offset="1" stop-color="#454140"/>
</radialGradient>
<linearGradient id="paint1_linear" x1="109.177" y1="81.9475" x2="109.177" y2="93.5186" gradientUnits="userSpaceOnUse">
<stop offset="0.003" stop-color="#424242"/>
<stop offset="0.472" stop-color="#353535"/>
<stop offset="1" stop-color="#212121"/>
</linearGradient>
<linearGradient id="paint2_linear" x1="109.177" y1="82.015" x2="109.177" y2="94.5391" gradientUnits="userSpaceOnUse">
<stop offset="0.003" stop-color="#616161"/>
<stop offset="0.324" stop-color="#505050"/>
<stop offset="0.955" stop-color="#242424"/>
<stop offset="1" stop-color="#212121"/>
</linearGradient>
<linearGradient id="paint3_linear" x1="86.4184" y1="89.3545" x2="132.214" y2="89.3545" gradientUnits="userSpaceOnUse">
<stop offset="0.001" stop-color="#BFBEBE"/>
<stop offset="0.3" stop-color="#212121" stop-opacity="0"/>
<stop offset="0.7" stop-color="#212121" stop-opacity="0"/>
<stop offset="1" stop-color="#BFBEBE"/>
</linearGradient>
<radialGradient id="paint4_radial" cx="0" cy="0" r="1" gradientUnits="userSpaceOnUse" gradientTransform="translate(109.176 131.218) scale(24.6023 11.4823)">
<stop offset="0.598" stop-color="#212121"/>
<stop offset="1" stop-color="#616161"/>
</radialGradient>
</defs>
</svg>
