<svg width="239" height="232" viewBox="0 0 239 232" fill="none" xmlns="http://www.w3.org/2000/svg">
<g filter="url(#filter0_d)">
<ellipse cx="109.572" cy="105.956" rx="39.0607" ry="35.9563" fill="#0088F0" fill-opacity="0.8"/>
<rect x="80.5059" y="80.0996" width="58.1368" height="51.7124" rx="20" fill="#0088F0" fill-opacity="0.8"/>
<path d="M87.7725 103.801C85.1079 103.801 82.9277 105.741 82.9277 108.111V123.193C82.9277 125.564 85.1079 127.503 87.7725 127.503C90.4371 127.503 92.6172 125.564 92.6172 123.193V108.111C92.6172 105.741 90.4371 103.801 87.7725 103.801ZM104.729 91.5196C104.729 87.5335 108.241 84.4092 112.723 84.4092C115.242 84.4092 117.689 85.465 119.263 87.1025C120.838 85.465 123.284 84.4092 125.804 84.4092C130.285 84.4092 133.797 87.5335 133.797 91.5196C133.797 96.0445 127.742 101.237 120.886 106.796C120.44 107.16 119.856 107.361 119.251 107.361C118.646 107.361 118.063 107.16 117.616 106.796C110.785 101.237 104.729 96.0445 104.729 91.5196ZM128.928 116.729H112.384C112.111 116.728 111.84 116.685 111.584 116.6L108.023 115.501C107.875 115.455 107.738 115.384 107.621 115.29C107.504 115.197 107.409 115.084 107.341 114.958C107.273 114.831 107.235 114.694 107.227 114.555C107.219 114.415 107.243 114.275 107.297 114.144C107.515 113.584 108.217 113.282 108.847 113.497L111.56 114.424C111.827 114.51 112.141 114.575 112.432 114.575H118.803C120.378 114.575 121.661 113.433 121.661 112.032C121.661 110.976 120.91 110.028 119.796 109.641L103.033 104.081C102.5 103.888 101.919 103.801 101.338 103.801H97.4619V123.237L112.892 127.137C113.886 127.395 114.951 127.352 115.92 127.029L133.797 121.039C133.797 118.647 131.617 116.729 128.928 116.729V116.729Z" fill="white"/>
</g>
<defs>
<filter id="filter0_d" x="0.511719" y="0" width="238.121" height="231.913" filterUnits="userSpaceOnUse" color-interpolation-filters="sRGB">
<feFlood flood-opacity="0" result="BackgroundImageFix"/>
<feColorMatrix in="SourceAlpha" type="matrix" values="0 0 0 0 0 0 0 0 0 0 0 0 0 0 0 0 0 0 127 0"/>
<feOffset dx="10" dy="10"/>
<feGaussianBlur stdDeviation="40"/>
<feColorMatrix type="matrix" values="0 0 0 0 0 0 0 0 0 0.533333 0 0 0 0 0.941176 0 0 0 0.2 0"/>
<feBlend mode="normal" in2="BackgroundImageFix" result="effect1_dropShadow"/>
<feBlend mode="normal" in="SourceGraphic" in2="effect1_dropShadow" result="shape"/>
</filter>
</defs>
</svg>
